<svg width="1204" height="1245" viewBox="0 0 1204 1245" fill="none" xmlns="http://www.w3.org/2000/svg">
<g opacity="0.1">
<g clip-path="url(#clip0_3_16049)">
<path d="M565.464 374.619C541.08 367.976 513.416 371.085 491.681 381.868C473.525 390.791 458.716 403.942 448.925 419.699C448.676 419.796 448.413 419.821 448.164 419.919C448.363 419.981 448.511 420.054 448.715 420.14C448.512 420.48 448.309 420.819 448.132 421.154C448.005 421.053 447.879 420.951 447.757 420.874C448.206 419.435 448.797 418.043 449.302 416.618C461.743 399.604 474.209 384.969 487.912 373.458C502.041 361.514 517.139 353.675 533.815 349.347C550.486 344.995 569.032 344.023 588.837 344.892C608.672 345.63 629.355 348.439 652.172 349.663C636.697 334.152 617.507 322.883 595.684 315.778C573.981 308.875 548.747 306.481 523.928 313.011C499.058 319.275 476.736 335.411 463.774 355.031C459.64 361.285 456.281 367.818 453.619 374.494C453.307 370.892 453.125 367.265 452.387 363.669C448.018 341.279 433.427 319.305 412.635 305.809C391.953 292.042 367.354 286.518 344.304 286.316C321.066 286.251 298.592 290.905 277.975 300.673C299.851 306.514 320.339 310.263 339.246 315.692C358.127 320.975 375.142 327.567 389.044 336.782C402.967 345.968 414.026 357.956 422.553 373.511C429.441 385.942 434.665 400.17 439.083 415.93C432.462 400.263 420.889 386.417 405.821 375.718C386.684 362.057 360.088 355.033 334.67 358.141C309.198 360.959 286.495 372.277 268.735 386.516C250.914 400.993 237.054 418.427 228.156 438.452C248.981 429.071 267.3 419.039 285.555 411.2C303.689 403.285 321.348 397.516 338.48 395.584C355.577 393.608 372.47 395.483 389.949 401.56C399.05 404.667 408.163 408.826 417.384 413.691C408.763 414.505 400.013 417.599 393.041 422.864C383.737 429.65 377.713 439.048 374.341 448.466C371.04 457.972 370.002 467.699 371.568 477.332C377.361 469.107 382.005 461.176 387.212 454.091C392.311 447.002 397.775 440.846 403.992 436.252C410.187 431.687 417.306 428.602 425.698 427.004C429.102 426.331 432.791 426.03 436.515 425.773C430.969 436.558 426.069 447.647 421.905 458.948C412.243 485.363 405.773 512.8 401.259 540.392C396.744 567.984 390.571 623.897 390.571 623.897C390.571 623.897 379.366 690.103 381.739 719.293L469.109 719.293C462.014 695.516 447.45 645.576 443.086 619.975C438.717 594.074 435.703 567.84 434.548 541.528C433.439 515.182 434.171 488.662 438.101 462.36C439.835 450.945 442.345 439.534 445.526 428.27C447.702 427.33 449.809 426.452 451.938 425.545C452.503 425.563 453.033 425.537 453.624 425.55C453.458 425.381 453.245 425.246 453.058 425.106C454.419 424.521 455.805 423.931 457.144 423.376C462.991 425.698 468.491 428.162 473.13 431.166C480.098 435.582 485.261 440.919 488.945 447.34C492.62 453.712 494.893 458.829 494.893 458.829L503.627 477.718L509.03 454.654C509.206 453.902 509.253 453.12 509.147 452.355C506.841 435.662 498.379 429.907 498.379 429.907C498.379 429.907 489.851 422.015 479.401 418.988C477.163 418.336 474.914 417.911 472.628 417.569C482.615 414.088 492.344 411.358 501.886 409.617C520.375 406.098 537.416 406.641 553.874 411.006C570.327 415.347 586.494 423.529 602.705 433.91C619.041 444.242 634.98 456.705 653.521 468.925C648.962 447.925 638.977 428.786 624.461 411.989C609.956 395.39 589.991 381.034 565.464 374.619Z" fill="#584528"/>
</g>
<path d="M97.3587 703.82C82.8547 703.82 71.7472 699.689 64.0362 691.427C56.5088 683.166 52.7451 671.507 52.7451 656.453V552.905C52.7451 537.85 56.5088 526.192 64.0362 517.93C71.7472 509.668 82.8547 505.538 97.3587 505.538C111.863 505.538 122.878 509.668 130.406 517.93C138.117 526.192 141.972 537.85 141.972 552.905V573.284H113.331V550.977C113.331 539.044 108.283 533.077 98.1848 533.077C88.0871 533.077 83.0383 539.044 83.0383 550.977V658.656C83.0383 670.406 88.0871 676.281 98.1848 676.281C108.283 676.281 113.331 670.406 113.331 658.656V629.189H141.972V656.453C141.972 671.507 138.117 683.166 130.406 691.427C122.878 699.689 111.863 703.82 97.3587 703.82Z" fill="#008542"/>
<path d="M191.767 508.292H232.8L264.195 701.066H233.902L228.394 662.787V663.337H193.97L188.462 701.066H160.372L191.767 508.292ZM224.814 637.175L211.319 541.889H210.769L197.55 637.175H224.814Z" fill="#008542"/>
<path d="M287.153 508.292H317.447V673.527H367.293V701.066H287.153V508.292Z" fill="#008542"/>
<path d="M494.816 508.292H574.956V535.831H525.11V589.532H564.215V617.071H525.11V701.066H494.816V508.292Z" fill="#008542"/>
<path d="M641.532 703.82C626.661 703.82 615.278 699.597 607.383 691.152C599.488 682.707 595.541 670.773 595.541 655.351V554.007C595.541 538.585 599.488 526.651 607.383 518.206C615.278 509.76 626.661 505.538 641.532 505.538C656.403 505.538 667.786 509.76 675.68 518.206C683.575 526.651 687.522 538.585 687.522 554.007V655.351C687.522 670.773 683.575 682.707 675.68 691.152C667.786 699.597 656.403 703.82 641.532 703.82ZM641.532 676.281C651.997 676.281 657.229 669.947 657.229 657.279V552.079C657.229 539.411 651.997 533.077 641.532 533.077C631.067 533.077 625.834 539.411 625.834 552.079V657.279C625.834 669.947 631.067 676.281 641.532 676.281Z" fill="#008542"/>
<path d="M716.271 508.292H761.16C776.765 508.292 788.148 511.963 795.308 519.307C802.468 526.467 806.049 537.575 806.049 552.63V564.472C806.049 584.483 799.439 597.151 786.22 602.476V603.026C793.564 605.23 798.705 609.728 801.642 616.521C804.763 623.314 806.324 632.402 806.324 643.785V677.658C806.324 683.166 806.508 687.664 806.875 691.152C807.242 694.457 808.16 697.761 809.629 701.066H778.785C777.683 697.945 776.949 695.008 776.581 692.254C776.214 689.5 776.031 684.543 776.031 677.382V642.132C776.031 633.32 774.562 627.169 771.624 623.681C768.871 620.193 764.005 618.448 757.029 618.448H746.564V701.066H716.271V508.292ZM757.579 590.909C763.638 590.909 768.136 589.349 771.074 586.228C774.195 583.106 775.755 577.874 775.755 570.53V555.659C775.755 548.682 774.47 543.634 771.9 540.512C769.513 537.391 765.658 535.831 760.333 535.831H746.564V590.909H757.579Z" fill="#008542"/>
<path d="M835.604 508.292H873.608L903.075 623.681H903.626V508.292H930.614V701.066H899.495L863.143 560.341H862.592V701.066H835.604V508.292Z" fill="#008542"/>
<path d="M961.391 508.292H991.684V701.066H961.391V508.292Z" fill="#008542"/>
<path d="M1046.04 508.292H1087.08L1118.47 701.066H1088.18L1082.67 662.787V663.337H1048.25L1042.74 701.066H1014.65L1046.04 508.292ZM1079.09 637.175L1065.59 541.889H1065.04L1051.83 637.175H1079.09Z" fill="#008542"/>
<path d="M343.385 787.86H311.715V760.321H405.348V787.86H373.678V953.096H343.385V787.86Z" fill="#584528"/>
<path d="M428.277 760.321H473.166C488.771 760.321 500.154 763.993 507.314 771.337C514.475 778.497 518.055 789.604 518.055 804.659V816.501C518.055 836.513 511.445 849.181 498.226 854.505V855.056C505.57 857.259 510.711 861.757 513.648 868.55C516.77 875.343 518.33 884.431 518.33 895.814V929.687C518.33 935.195 518.514 939.693 518.881 943.182C519.248 946.486 520.166 949.791 521.635 953.096H490.791C489.689 949.975 488.955 947.037 488.588 944.283C488.221 941.529 488.037 936.572 488.037 929.412V894.162C488.037 885.349 486.568 879.199 483.631 875.71C480.877 872.222 476.011 870.478 469.035 870.478H458.57V953.096H428.277V760.321ZM469.586 842.939C475.644 842.939 480.142 841.378 483.08 838.257C486.201 835.136 487.762 829.904 487.762 822.56V807.689C487.762 800.712 486.476 795.663 483.906 792.542C481.519 789.421 477.664 787.86 472.34 787.86H458.57V842.939H469.586Z" fill="#584528"/>
<path d="M547.61 760.321H630.228V787.86H577.903V838.808H619.487V866.347H577.903V925.556H630.228V953.096H547.61V760.321Z" fill="#584528"/>
<path d="M655.917 760.321H738.534V787.86H686.21V838.808H727.794V866.347H686.21V925.556H738.534V953.096H655.917V760.321Z" fill="#584528"/>
<path d="M804.142 955.85C789.454 955.85 778.347 951.719 770.82 943.457C763.292 935.012 759.529 922.986 759.529 907.381V896.365H788.169V909.584C788.169 922.068 793.402 928.31 803.867 928.31C809.007 928.31 812.863 926.842 815.433 923.904C818.187 920.783 819.564 915.826 819.564 909.033C819.564 900.955 817.728 893.886 814.056 887.828C810.384 881.585 803.591 874.15 793.677 865.521C781.193 854.505 772.472 844.591 767.515 835.779C762.558 826.782 760.079 816.685 760.079 805.485C760.079 790.247 763.935 778.497 771.646 770.235C779.357 761.79 790.556 757.567 805.244 757.567C819.748 757.567 830.672 761.79 838.015 770.235C845.543 778.497 849.306 790.431 849.306 806.036V814.023H820.666V804.108C820.666 797.499 819.38 792.726 816.81 789.788C814.24 786.667 810.476 785.106 805.519 785.106C795.421 785.106 790.372 791.257 790.372 803.558C790.372 810.534 792.208 817.052 795.88 823.111C799.736 829.169 806.621 836.513 816.535 845.142C829.203 856.158 837.924 866.164 842.697 875.16C847.47 884.156 849.857 894.713 849.857 906.83C849.857 922.619 845.91 934.736 838.015 943.182C830.304 951.627 819.013 955.85 804.142 955.85Z" fill="#584528"/>
<mask id="path-4-inside-1_3_16049" fill="white">
<path d="M1056.81 484.557C1029.71 380.148 968.791 287.658 883.561 221.543C798.332 155.429 693.6 119.415 585.733 119.131C477.867 118.848 372.947 154.31 287.371 219.976C201.796 285.642 140.388 377.81 112.746 482.075L128.523 486.257C155.24 385.48 214.594 296.394 297.307 232.925C380.021 169.455 481.432 135.179 585.691 135.453C689.949 135.727 791.179 170.536 873.557 234.44C955.936 298.344 1014.82 387.74 1041.01 488.657L1056.81 484.557Z"/>
</mask>
<path d="M1056.81 484.557C1029.71 380.148 968.791 287.658 883.561 221.543C798.332 155.429 693.6 119.415 585.733 119.131C477.867 118.848 372.947 154.31 287.371 219.976C201.796 285.642 140.388 377.81 112.746 482.075L128.523 486.257C155.24 385.48 214.594 296.394 297.307 232.925C380.021 169.455 481.432 135.179 585.691 135.453C689.949 135.727 791.179 170.536 873.557 234.44C955.936 298.344 1014.82 387.74 1041.01 488.657L1056.81 484.557Z" fill="#B71234" stroke="#B71234" stroke-width="6" mask="url(#path-4-inside-1_3_16049)"/>
<mask id="path-5-inside-2_3_16049" fill="white">
<path d="M107.542 738.721C133.71 845.436 195.126 940.198 281.849 1007.67C368.572 1075.13 475.526 1111.36 585.399 1110.48C695.272 1109.61 801.634 1071.67 887.268 1002.83C972.901 933.983 1032.8 838.253 1057.25 731.133L1041.34 727.5C1017.7 831.036 959.81 923.565 877.041 990.108C794.271 1056.65 691.467 1093.31 585.269 1094.16C479.07 1095.01 375.694 1060 291.871 994.784C208.049 929.572 148.687 837.98 123.394 734.834L107.542 738.721Z"/>
</mask>
<path d="M107.542 738.721C133.71 845.436 195.126 940.198 281.849 1007.67C368.572 1075.13 475.526 1111.36 585.399 1110.48C695.272 1109.61 801.634 1071.67 887.268 1002.83C972.901 933.983 1032.8 838.253 1057.25 731.133L1041.34 727.5C1017.7 831.036 959.81 923.565 877.041 990.108C794.271 1056.65 691.467 1093.31 585.269 1094.16C479.07 1095.01 375.694 1060 291.871 994.784C208.049 929.572 148.687 837.98 123.394 734.834L107.542 738.721Z" fill="#B71234" stroke="#B71234" stroke-width="6" mask="url(#path-5-inside-2_3_16049)"/>
</g>
<defs>
<clipPath id="clip0_3_16049">
<rect width="439.887" height="439.887" fill="white" transform="translate(220.174 261.183)"/>
</clipPath>
</defs>
</svg>
