<svg width="30" height="30" viewBox="0 0 30 30" fill="none" xmlns="http://www.w3.org/2000/svg">
<g clip-path="url(#clip0_15_5898)">
<path d="M13.0234 22.6153H16.1705V14.999H18.2696L18.548 12.375H16.1705L16.1734 11.0606C16.1734 10.3762 16.239 10.0096 17.2205 10.0096H18.533V7.38464H16.433C13.9112 7.38464 13.0234 8.65777 13.0234 10.799V12.375H11.4512V15H13.0234V22.6153Z" fill="white"/>
<path d="M15 0.9375C22.7541 0.9375 29.0625 7.24594 29.0625 15C29.0625 22.7541 22.7541 29.0625 15 29.0625C7.24594 29.0625 0.9375 22.7541 0.9375 15C0.9375 7.24594 7.24594 0.9375 15 0.9375ZM15 0C6.71531 0 0 6.71531 0 15C0 23.2847 6.71531 30 15 30C23.2847 30 30 23.2847 30 15C30 6.71531 23.2847 0 15 0Z" fill="white"/>
</g>
<defs>
<clipPath id="clip0_15_5898">
<rect width="30" height="30" fill="white"/>
</clipPath>
</defs>
</svg>
