<svg width="30" height="30" viewBox="0 0 30 30" fill="none" xmlns="http://www.w3.org/2000/svg">
<g clip-path="url(#clip0_15_5894)">
<path d="M20.5068 7.65661H9.49305C9.25079 7.65268 9.0102 7.6975 8.78561 7.78841C8.56101 7.87931 8.35698 8.01445 8.18565 8.18578C8.01432 8.35711 7.87919 8.56113 7.78829 8.78573C7.69738 9.01033 7.65256 9.25091 7.65649 9.49317V20.5079C7.65649 21.5438 8.45524 22.3444 9.49305 22.3444H20.5077C20.75 22.3482 20.9905 22.3033 21.215 22.2124C21.4396 22.1214 21.6435 21.9863 21.8148 21.815C21.9861 21.6437 22.1213 21.4397 22.2122 21.2151C22.3032 20.9906 22.3481 20.7501 22.3443 20.5079V9.49317C22.348 9.2509 22.3029 9.01035 22.2119 8.78581C22.1208 8.56127 21.9856 8.3573 21.8142 8.18602C21.6428 8.01473 21.4388 7.8796 21.2142 7.78866C20.9896 7.69772 20.7491 7.65282 20.5068 7.65661ZM15.0112 12.1154C16.6396 12.1154 17.9596 13.3941 17.9596 14.9729C17.9596 16.5497 16.6396 17.8304 15.0112 17.8304C13.3837 17.8304 12.0637 16.5507 12.0637 14.9729C12.0637 13.3941 13.3837 12.1154 15.0112 12.1154ZM20.5068 20.0485C20.5068 20.371 20.369 20.5079 20.0474 20.5079H9.95055C9.62899 20.5079 9.49117 20.371 9.49117 20.0485V13.6229L10.6349 13.8713C10.5093 14.2795 10.4454 14.7042 10.4456 15.1313C10.4456 17.5725 12.4902 19.5525 15.0093 19.5525C17.5293 19.5525 19.573 17.5725 19.573 15.1313C19.573 14.6935 19.5065 14.2707 19.3837 13.8713L20.5059 13.6229V20.0485H20.5068ZM20.5068 11.7882C20.5068 11.91 20.4584 12.0268 20.3723 12.113C20.2861 12.1991 20.1693 12.2475 20.0474 12.2475H18.2109C18.089 12.2475 17.9722 12.1991 17.886 12.113C17.7999 12.0268 17.7515 11.91 17.7515 11.7882V9.95161C17.7515 9.82978 17.7999 9.71293 17.886 9.62678C17.9722 9.54063 18.089 9.49223 18.2109 9.49223H20.0474C20.1693 9.49223 20.2861 9.54063 20.3723 9.62678C20.4584 9.71293 20.5068 9.82978 20.5068 9.95161V11.7882Z" fill="white"/>
<path d="M15 0.9375C22.7541 0.9375 29.0625 7.24594 29.0625 15C29.0625 22.7541 22.7541 29.0625 15 29.0625C7.24594 29.0625 0.9375 22.7541 0.9375 15C0.9375 7.24594 7.24594 0.9375 15 0.9375ZM15 0C6.71531 0 0 6.71625 0 15C0 23.2838 6.71531 30 15 30C23.2847 30 30 23.2847 30 15C30 6.71531 23.2847 0 15 0Z" fill="white"/>
</g>
<defs>
<clipPath id="clip0_15_5894">
<rect width="30" height="30" fill="white"/>
</clipPath>
</defs>
</svg>
