<svg width="206" height="206" viewBox="0 0 206 206" fill="none" xmlns="http://www.w3.org/2000/svg">
<g clip-path="url(#clip0_17_6959)">
<path d="M100.345 61.9852C96.3102 60.886 91.7328 61.4005 88.1365 63.1847C85.1324 64.6611 82.682 66.837 81.062 69.4441C81.0208 69.4603 80.9773 69.4644 80.9361 69.4806C80.9691 69.4909 80.9935 69.5028 81.0272 69.5172C80.9936 69.5733 80.96 69.6295 80.9307 69.6849C80.9098 69.6681 80.8889 69.6514 80.8688 69.6386C80.943 69.4004 81.0408 69.1702 81.1243 68.9344C83.1829 66.1193 85.2456 63.6976 87.5129 61.793C89.8508 59.8168 92.3488 58.5197 95.1081 57.8036C97.8665 57.0835 100.935 56.9226 104.212 57.0665C107.494 57.1886 110.916 57.6533 114.692 57.8558C112.131 55.2893 108.956 53.4249 105.345 52.2492C101.754 51.1071 97.5788 50.711 93.4722 51.7914C89.3571 52.8279 85.6637 55.4977 83.519 58.7442C82.8349 59.7789 82.2792 60.8598 81.8386 61.9644C81.7871 61.3684 81.757 60.7683 81.6349 60.1733C80.912 56.4687 78.4976 52.8328 75.0575 50.5998C71.6353 48.3217 67.5652 47.4077 63.7513 47.3744C59.9062 47.3636 56.1877 48.1337 52.7763 49.7499C56.396 50.7164 59.7859 51.3367 62.9144 52.2349C66.0383 53.1091 68.8537 54.1998 71.154 55.7245C73.4578 57.2445 75.2876 59.2281 76.6984 61.8018C77.8382 63.8587 78.7025 66.2128 79.4335 68.8205C78.338 66.2283 76.4231 63.9372 73.93 62.167C70.7635 59.9067 66.3628 58.7444 62.1573 59.2587C57.9425 59.7249 54.186 61.5976 51.2475 63.9537C48.2988 66.349 46.0055 69.2336 44.5332 72.5471C47.9789 70.9949 51.01 69.3349 54.0306 68.038C57.031 66.7282 59.9529 65.7737 62.7876 65.454C65.6165 65.1271 68.4117 65.4373 71.3038 66.4428C72.8096 66.957 74.3175 67.6451 75.8432 68.45C74.4167 68.5847 72.969 69.0968 71.8154 69.9678C70.2759 71.0907 69.2791 72.6456 68.7212 74.2041C68.175 75.7769 68.0032 77.3864 68.2623 78.9802C69.2208 77.6193 69.9893 76.3071 70.8509 75.1348C71.6946 73.9617 72.5987 72.9431 73.6273 72.183C74.6524 71.4278 75.8303 70.9172 77.2189 70.6529C77.7821 70.5415 78.3924 70.4917 79.0086 70.4491C78.0909 72.2338 77.2802 74.0686 76.5913 75.9383C74.9926 80.309 73.922 84.8488 73.1751 89.4142C72.4281 93.9796 71.4067 103.231 71.4067 103.231C71.4067 103.231 69.5527 114.186 69.9453 119.015L84.4017 119.015C83.2278 115.081 80.818 106.818 80.0958 102.582C79.373 98.2966 78.8743 93.9558 78.6831 89.6022C78.4997 85.243 78.6207 80.8548 79.2711 76.5029C79.558 74.6142 79.9733 72.7261 80.4996 70.8624C80.8596 70.7067 81.2083 70.5615 81.5605 70.4115C81.654 70.4144 81.7418 70.4102 81.8396 70.4123C81.8121 70.3843 81.7769 70.362 81.7459 70.3389C81.971 70.2421 82.2003 70.1445 82.4219 70.0525C83.3894 70.4368 84.2994 70.8445 85.0669 71.3415C86.2199 72.0722 87.0743 72.9552 87.6838 74.0176C88.2918 75.072 88.668 75.9186 88.668 75.9186L90.1131 79.044L90.7851 76.1753C90.9611 75.4241 91.0326 74.64 90.8399 73.893C90.316 71.8619 89.2448 71.1332 89.2448 71.1332C89.2448 71.1332 87.8336 69.8273 86.1046 69.3266C85.7343 69.2186 85.3623 69.1484 84.984 69.0918C86.6365 68.5158 88.2462 68.0641 89.8251 67.776C92.8843 67.1937 95.7039 67.2835 98.427 68.0058C101.149 68.7241 103.824 70.0779 106.507 71.7955C109.21 73.505 111.847 75.5673 114.915 77.5891C114.161 74.1145 112.508 70.9477 110.107 68.1684C107.707 65.422 104.403 63.0467 100.345 61.9852Z" fill="#584528"/>
</g>
<path d="M22.8916 116.456C20.4917 116.456 18.6539 115.772 17.378 114.405C16.1325 113.038 15.5098 111.109 15.5098 108.618V91.4852C15.5098 88.9942 16.1325 87.0652 17.378 85.6982C18.6539 84.3312 20.4917 83.6477 22.8916 83.6477C25.2915 83.6477 27.1141 84.3312 28.3596 85.6982C29.6355 87.0652 30.2734 88.9942 30.2734 91.4852V94.8572H25.5345V91.1662C25.5345 89.1917 24.6991 88.2044 23.0283 88.2044C21.3575 88.2044 20.5221 89.1917 20.5221 91.1662V108.983C20.5221 110.927 21.3575 111.899 23.0283 111.899C24.6991 111.899 25.5345 110.927 25.5345 108.983V104.107H30.2734V108.618C30.2734 111.109 29.6355 113.038 28.3596 114.405C27.1141 115.772 25.2915 116.456 22.8916 116.456Z" fill="#008542"/>
<path d="M38.5125 84.1034H45.302L50.4966 116H45.4843L44.5729 109.666V109.758H38.8771L37.9657 116H33.3179L38.5125 84.1034ZM43.9805 105.429L41.7478 89.6625H41.6566L39.4694 105.429H43.9805Z" fill="#008542"/>
<path d="M54.2954 84.1034H59.3078V111.444H67.5554V116H54.2954V84.1034Z" fill="#008542"/>
<path d="M88.6557 84.1034H101.916V88.6601H93.6681V97.5456H100.139V102.102H93.6681V116H88.6557V84.1034Z" fill="#008542"/>
<path d="M112.931 116.456C110.471 116.456 108.587 115.757 107.281 114.36C105.975 112.962 105.322 110.988 105.322 108.436V91.6675C105.322 89.1157 105.975 87.1412 107.281 85.7438C108.587 84.3464 110.471 83.6477 112.931 83.6477C115.392 83.6477 117.276 84.3464 118.582 85.7438C119.888 87.1412 120.541 89.1157 120.541 91.6675V108.436C120.541 110.988 119.888 112.962 118.582 114.36C117.276 115.757 115.392 116.456 112.931 116.456ZM112.931 111.899C114.663 111.899 115.529 110.851 115.529 108.755V91.3485C115.529 89.2524 114.663 88.2044 112.931 88.2044C111.2 88.2044 110.334 89.2524 110.334 91.3485V108.755C110.334 110.851 111.2 111.899 112.931 111.899Z" fill="#008542"/>
<path d="M125.298 84.1034H132.725C135.307 84.1034 137.191 84.7109 138.376 85.9261C139.56 87.1108 140.153 88.9487 140.153 91.4396V93.399C140.153 96.7102 139.059 98.8063 136.872 99.6873V99.7784C138.087 100.143 138.938 100.887 139.424 102.011C139.94 103.135 140.198 104.639 140.198 106.522V112.127C140.198 113.038 140.229 113.783 140.289 114.36C140.35 114.907 140.502 115.453 140.745 116H135.642C135.459 115.484 135.338 114.998 135.277 114.542C135.216 114.086 135.186 113.266 135.186 112.081V106.249C135.186 104.791 134.943 103.773 134.457 103.196C134.001 102.619 133.196 102.33 132.042 102.33H130.31V116H125.298V84.1034ZM132.133 97.7735C133.135 97.7735 133.88 97.5152 134.366 96.9988C134.882 96.4824 135.14 95.6166 135.14 94.4015V91.9409C135.14 90.7865 134.928 89.9511 134.502 89.4347C134.108 88.9183 133.47 88.6601 132.589 88.6601H130.31V97.7735H132.133Z" fill="#008542"/>
<path d="M145.043 84.1034H151.331L156.207 103.196H156.298V84.1034H160.764V116H155.615L149.6 92.7155H149.509V116H145.043V84.1034Z" fill="#008542"/>
<path d="M165.856 84.1034H170.868V116H165.856V84.1034Z" fill="#008542"/>
<path d="M179.863 84.1034H186.652L191.847 116H186.834L185.923 109.666V109.758H180.227L179.316 116H174.668L179.863 84.1034ZM185.331 105.429L183.098 89.6625H183.007L180.819 105.429H185.331Z" fill="#008542"/>
<path d="M63.5996 130.36H58.3594V125.803H73.8521V130.36H68.6119V157.7H63.5996V130.36Z" fill="#584528"/>
<path d="M77.6459 125.803H85.0733C87.6555 125.803 89.5389 126.411 90.7236 127.626C91.9084 128.81 92.5007 130.648 92.5007 133.139V135.099C92.5007 138.41 91.4071 140.506 89.2199 141.387V141.478C90.435 141.843 91.2856 142.587 91.7717 143.711C92.2881 144.835 92.5463 146.339 92.5463 148.222V153.827C92.5463 154.738 92.5767 155.482 92.6375 156.06C92.6982 156.606 92.8501 157.153 93.0931 157.7H87.9896C87.8074 157.184 87.6858 156.697 87.6251 156.242C87.5643 155.786 87.534 154.966 87.534 153.781V147.949C87.534 146.49 87.2909 145.473 86.8049 144.896C86.3492 144.318 85.5442 144.03 84.3898 144.03H82.6583V157.7H77.6459V125.803ZM84.481 139.473C85.4834 139.473 86.2277 139.215 86.7137 138.699C87.2302 138.182 87.4884 137.316 87.4884 136.101V133.641C87.4884 132.486 87.2757 131.651 86.8505 131.134C86.4555 130.618 85.8176 130.36 84.9366 130.36H82.6583V139.473H84.481Z" fill="#584528"/>
<path d="M97.391 125.803H111.061V130.36H102.403V138.79H109.284V143.346H102.403V153.143H111.061V157.7H97.391V125.803Z" fill="#584528"/>
<path d="M115.312 125.803H128.982V130.36H120.324V138.79H127.205V143.346H120.324V153.143H128.982V157.7H115.312V125.803Z" fill="#584528"/>
<path d="M139.837 158.156C137.407 158.156 135.569 157.472 134.324 156.105C133.078 154.708 132.455 152.718 132.455 150.136V148.313H137.194V150.5C137.194 152.566 138.06 153.599 139.792 153.599C140.642 153.599 141.28 153.356 141.706 152.87C142.161 152.353 142.389 151.533 142.389 150.409C142.389 149.073 142.085 147.903 141.478 146.901C140.87 145.868 139.746 144.637 138.106 143.21C136.04 141.387 134.597 139.747 133.777 138.288C132.957 136.8 132.547 135.129 132.547 133.276C132.547 130.755 133.185 128.81 134.46 127.443C135.736 126.046 137.589 125.347 140.02 125.347C142.419 125.347 144.227 126.046 145.442 127.443C146.688 128.81 147.31 130.785 147.31 133.367V134.689H142.571V133.048C142.571 131.955 142.359 131.165 141.933 130.679C141.508 130.162 140.885 129.904 140.065 129.904C138.394 129.904 137.559 130.922 137.559 132.957C137.559 134.111 137.863 135.19 138.47 136.192C139.108 137.195 140.247 138.41 141.888 139.838C143.984 141.66 145.427 143.316 146.217 144.804C147.007 146.293 147.401 148.04 147.401 150.045C147.401 152.657 146.748 154.662 145.442 156.06C144.166 157.457 142.298 158.156 139.837 158.156Z" fill="#584528"/>
<mask id="path-4-inside-1_17_6959" fill="white">
<path d="M181.645 80.1773C177.163 62.9016 167.082 47.5981 152.98 36.6586C138.878 25.7191 121.549 19.7602 103.701 19.7132C85.8532 19.6663 68.4929 25.534 54.3334 36.3992C40.1739 47.2644 30.0132 62.5147 25.4396 79.7665L28.05 80.4586C32.4707 63.7838 42.2915 49.0435 55.9774 38.5417C69.6634 28.04 86.4431 22.3685 103.694 22.4139C120.945 22.4592 137.694 28.2188 151.325 38.7924C164.955 49.3661 174.698 64.1578 179.031 80.8556L181.645 80.1773Z"/>
</mask>
<path d="M181.645 80.1773C177.163 62.9016 167.082 47.5981 152.98 36.6586C138.878 25.7191 121.549 19.7602 103.701 19.7132C85.8532 19.6663 68.4929 25.534 54.3334 36.3992C40.1739 47.2644 30.0132 62.5147 25.4396 79.7665L28.05 80.4586C32.4707 63.7838 42.2915 49.0435 55.9774 38.5417C69.6634 28.04 86.4431 22.3685 103.694 22.4139C120.945 22.4592 137.694 28.2188 151.325 38.7924C164.955 49.3661 174.698 64.1578 179.031 80.8556L181.645 80.1773Z" stroke="#B71234" stroke-width="6" mask="url(#path-4-inside-1_17_6959)"/>
<mask id="path-5-inside-2_17_6959" fill="white">
<path d="M24.578 122.23C28.9078 139.887 39.0698 155.567 53.4192 166.73C67.7685 177.894 85.4653 183.888 103.645 183.743C121.825 183.597 139.424 177.321 153.593 165.93C167.762 154.538 177.672 138.699 181.719 120.975L179.086 120.373C175.175 137.505 165.596 152.815 151.901 163.825C138.205 174.835 121.195 180.902 103.624 181.042C86.0518 181.183 68.9469 175.389 55.0775 164.599C41.2081 153.809 31.3859 138.654 27.2009 121.587L24.578 122.23Z"/>
</mask>
<path d="M24.578 122.23C28.9078 139.887 39.0698 155.567 53.4192 166.73C67.7685 177.894 85.4653 183.888 103.645 183.743C121.825 183.597 139.424 177.321 153.593 165.93C167.762 154.538 177.672 138.699 181.719 120.975L179.086 120.373C175.175 137.505 165.596 152.815 151.901 163.825C138.205 174.835 121.195 180.902 103.624 181.042C86.0518 181.183 68.9469 175.389 55.0775 164.599C41.2081 153.809 31.3859 138.654 27.2009 121.587L24.578 122.23Z" stroke="#B71234" stroke-width="6" mask="url(#path-5-inside-2_17_6959)"/>
<defs>
<clipPath id="clip0_17_6959">
<rect width="72.7845" height="72.7845" fill="white" transform="translate(43.2129 43.2158)"/>
</clipPath>
</defs>
</svg>
