<svg width="65" height="65" viewBox="0 0 65 65" fill="none" xmlns="http://www.w3.org/2000/svg">
<g clip-path="url(#clip0_40_6618)">
<path d="M51.022 16.7619C47.419 15.7803 43.3311 16.2397 40.1194 17.8331C37.4366 19.1516 35.2484 21.0948 33.8016 23.4231C33.7648 23.4375 33.726 23.4412 33.6892 23.4556C33.7186 23.4648 33.7404 23.4755 33.7705 23.4883C33.7406 23.5385 33.7106 23.5887 33.6844 23.6381C33.6657 23.6231 33.6471 23.6082 33.6291 23.5968C33.6953 23.3841 33.7827 23.1784 33.8573 22.9678C35.6957 20.4538 37.5378 18.2912 39.5626 16.5903C41.6504 14.8255 43.8813 13.6671 46.3454 13.0276C48.8088 12.3845 51.5492 12.2408 54.4758 12.3692C57.4067 12.4783 60.4629 12.8934 63.8344 13.0742C61.5477 10.7822 58.7121 9.11716 55.4875 8.06719C52.2805 7.04722 48.5519 6.6935 44.8845 7.65842C41.2096 8.584 37.9112 10.9683 35.9958 13.8675C35.3849 14.7916 34.8886 15.7569 34.4952 16.7434C34.4492 16.2111 34.4223 15.6752 34.3133 15.1438C33.6677 11.8354 31.5115 8.58843 28.4393 6.59418C25.3832 4.55981 21.7483 3.74356 18.3423 3.7138C14.9085 3.70416 11.5877 4.39189 8.54116 5.83521C11.7737 6.69839 14.8011 7.25231 17.595 8.05447C20.3848 8.83518 22.899 9.80915 24.9533 11.1708C27.0107 12.5282 28.6448 14.2997 29.9047 16.5982C30.9226 18.435 31.6945 20.5374 32.3473 22.8662C31.3689 20.5512 29.6588 18.5052 27.4324 16.9243C24.6046 14.9057 20.6746 13.8678 16.9188 14.327C13.1549 14.7433 9.80006 16.4158 7.17585 18.5199C4.5425 20.659 2.49449 23.2351 1.17967 26.1942C4.25684 24.808 6.96379 23.3256 9.66128 22.1673C12.3408 20.9977 14.9502 20.1452 17.4817 19.8597C20.008 19.5678 22.5043 19.8448 25.0871 20.7428C26.4318 21.202 27.7784 21.8164 29.141 22.5353C27.867 22.6556 26.5742 23.1129 25.544 23.8908C24.1691 24.8936 23.2789 26.2822 22.7807 27.6739C22.2929 29.0786 22.1395 30.5159 22.3709 31.9392C23.2269 30.7239 23.9132 29.552 24.6826 28.5051C25.4361 27.4575 26.2435 26.5479 27.1621 25.8691C28.0775 25.1946 29.1294 24.7386 30.3695 24.5026C30.8725 24.4031 31.4176 24.3587 31.9678 24.3206C31.1483 25.9144 30.4243 27.5529 29.809 29.2227C28.3814 33.1259 27.4253 37.1802 26.7582 41.2573C26.0911 45.3344 25.179 53.5964 25.179 53.5964C25.179 53.5964 23.5233 63.3794 23.8738 67.6927L36.7841 67.6927C35.7358 64.1792 33.5837 56.7998 32.9388 53.0169C32.2933 49.1897 31.8479 45.3132 31.6772 41.4252C31.5134 37.5322 31.6215 33.6134 32.2022 29.7269C32.4584 28.0402 32.8294 26.354 33.2994 24.6897C33.6209 24.5507 33.9323 24.421 34.2468 24.287C34.3303 24.2896 34.4087 24.2858 34.496 24.2877C34.4715 24.2627 34.44 24.2428 34.4124 24.2221C34.6134 24.1357 34.8182 24.0485 35.0161 23.9664C35.8801 24.3096 36.6927 24.6737 37.3782 25.1175C38.4079 25.7701 39.1708 26.5587 39.7152 27.5074C40.2582 28.449 40.5942 29.2051 40.5942 29.2051L41.8847 31.9962L42.4564 29.5557C42.6324 28.8046 42.7079 28.0192 42.5015 27.2759C42.0235 25.5534 41.1092 24.9316 41.1092 24.9316C41.1092 24.9316 39.849 23.7653 38.3049 23.3181C37.9742 23.2217 37.642 23.159 37.3042 23.1084C38.7799 22.594 40.2175 22.1907 41.6275 21.9334C44.3595 21.4133 46.8776 21.4936 49.3094 22.1386C51.7406 22.7801 54.1296 23.9891 56.525 25.523C58.9389 27.0497 61.2941 28.8914 64.0339 30.6969C63.3601 27.5939 61.8847 24.7658 59.7398 22.2838C57.5964 19.8311 54.6463 17.7099 51.022 16.7619Z" fill="#584528"/>
</g>
<defs>
<clipPath id="clip0_40_6618">
<rect width="65" height="65" fill="white"/>
</clipPath>
</defs>
</svg>
