<svg width="30" height="30" viewBox="0 0 30 30" fill="none" xmlns="http://www.w3.org/2000/svg">
<g clip-path="url(#clip0_15_5905)">
<path d="M14.9738 0.9375C22.7234 0.9375 29.0282 7.24594 29.0282 15C29.0282 22.7541 22.7234 29.0625 14.9738 29.0625C7.22419 29.0625 0.919382 22.7541 0.919382 15C0.919382 7.24594 7.22419 0.9375 14.9738 0.9375ZM14.9738 0C6.69387 0 -0.0175781 6.71625 -0.0175781 15C-0.0175781 23.2838 6.6948 30 14.9738 30C23.2528 30 29.9651 23.2847 29.9651 15C29.9651 6.71531 23.2528 0 14.9738 0Z" fill="white"/>
<path d="M18.1847 7.22091C14.3378 6.53675 12.3907 7.58588 11.2684 8.40718C10.1462 9.22825 8.88175 10.7166 8.98878 13.317C9.09557 15.9176 11.3039 16.2938 11.3039 16.2938C11.3039 16.2938 11.5532 15.8316 11.6067 15.5239C11.6602 15.2157 11.6423 14.908 11.2506 14.3776C10.4671 13.1801 11.0903 11.0246 11.9273 10.2377C12.7212 9.4911 13.9221 8.42424 16.5225 8.59528C19.6064 8.79819 19.5681 12.1195 19.5681 12.1195C19.5326 14.1895 19.2119 14.7881 18.3924 16.1057C17.3773 17.4056 15.5784 17.0294 15.2403 16.5674C14.6881 15.7464 15.3471 14.2409 15.7387 12.7011C16.1308 11.1615 15.6497 10.9732 15.3826 10.7337C15.1153 10.4942 13.744 10.1521 13.0137 11.6576C12.2835 13.1628 13.0315 14.5316 13.0315 14.5316C13.0315 14.5316 12.8002 15.5069 12.212 17.5937C11.6243 19.6809 11.4284 22.042 11.7311 23C12.5683 22.5208 13.1561 21.4775 13.5835 20.4165C14.0109 19.3559 14.296 17.6621 14.385 17.5937C14.5273 17.7651 15.5604 18.364 15.5604 18.364C16.362 18.7402 17.7512 18.7402 19.0512 18.1243C20.3514 17.5084 21.7586 15.3529 21.9187 13.5053C22.3283 9.98109 20.7255 7.88262 18.1847 7.22091Z" fill="white"/>
</g>
<defs>
<clipPath id="clip0_15_5905">
<rect width="30" height="30" fill="white"/>
</clipPath>
</defs>
</svg>
