<svg width="30" height="30" viewBox="0 0 30 30" fill="none" xmlns="http://www.w3.org/2000/svg">
<g clip-path="url(#clip0_15_5891)">
<path d="M15 0.5C23.0084 0.5 29.5 6.99157 29.5 15C29.5 23.0084 23.0084 29.5 15 29.5C6.99157 29.5 0.5 23.0084 0.5 15C0.5 6.99157 6.99157 0.5 15 0.5Z" stroke="white"/>
<path fill-rule="evenodd" clip-rule="evenodd" d="M18.3696 6.21155C18.3702 6.47991 18.4493 10.3617 22.5221 10.6037C22.5221 11.7229 22.5233 12.5344 22.5233 13.6026C22.2151 13.6201 19.8421 13.4479 18.3649 12.1307L18.3602 17.969C18.4165 22.0213 15.4346 24.4869 11.5364 23.635C4.81511 21.6246 7.0487 11.6561 13.7975 12.7225C13.7975 15.941 13.7993 12.7219 13.7993 15.941C11.0114 15.5309 10.0786 17.85 10.8198 19.5112C11.4936 21.0229 14.2698 21.3504 15.2383 19.2176C15.3479 18.8004 15.4024 18.324 15.4024 17.7897V6.1969L18.3696 6.21155Z" fill="white"/>
</g>
<defs>
<clipPath id="clip0_15_5891">
<rect width="30" height="30" fill="white"/>
</clipPath>
</defs>
</svg>
