<svg width="30" height="30" viewBox="0 0 30 30" fill="none" xmlns="http://www.w3.org/2000/svg">
<g clip-path="url(#clip0_15_5902)">
<path d="M14.9914 0.9375C22.741 0.9375 29.0458 7.24594 29.0458 15C29.0458 22.7541 22.741 29.0625 14.9914 29.0625C7.24176 29.0625 0.93696 22.7541 0.93696 15C0.93696 7.24594 7.24176 0.9375 14.9914 0.9375ZM14.9914 0C6.71144 0 0 6.71625 0 15C0 23.2838 6.71238 30 14.9914 30C23.2703 30 29.9827 23.2847 29.9827 15C29.9827 6.71531 23.2703 0 14.9914 0Z" fill="white"/>
<path d="M21.0216 10.2463C21.0216 10.2463 19.3319 10 14.9388 10C10.5302 10 8.97868 10.2463 8.97868 10.2463C8.71885 10.2463 8.46155 10.2975 8.22149 10.3971C7.98143 10.4968 7.7633 10.6428 7.57956 10.8269C7.39582 11.011 7.25006 11.2296 7.15062 11.4702C7.05118 11.7107 7 11.9686 7 12.229V18.7713C7.00003 19.0316 7.05124 19.2895 7.15069 19.53C7.25015 19.7705 7.39591 19.9891 7.57964 20.1732C7.76338 20.3573 7.9815 20.5033 8.22155 20.6029C8.46159 20.7025 8.71887 20.7537 8.97868 20.7537C8.97868 20.7537 10.5302 21 14.9437 21C19.3317 21 21.0213 20.7537 21.0213 20.7537C21.546 20.7537 22.0492 20.5449 22.4203 20.1731C22.7913 19.8013 22.9999 19.2971 23 18.7713V12.229C23 11.7031 22.7916 11.1988 22.4205 10.827C22.0495 10.4552 21.5463 10.2463 21.0216 10.2463ZM12.578 18.6395V12.396L17.9735 15.5175L12.578 18.6395Z" fill="white"/>
</g>
<defs>
<clipPath id="clip0_15_5902">
<rect width="30" height="30" fill="white"/>
</clipPath>
</defs>
</svg>
